<?xml version="1.0" encoding="utf-8"?><!-- Uploaded to: SVG Repo, www.svgrepo.com, Generator: SVG Repo Mixer Tools -->
<svg width="800px" height="800px" viewBox="0 0 24 24" fill="none" xmlns="http://www.w3.org/2000/svg">
<path d="M20 17.5002V6.50018C19.9961 5.90444 19.8747 5.31529 19.6428 4.76653C19.4108 4.21778 19.073 3.72018 18.6485 3.30218C18.224 2.88418 17.7212 2.55404 17.1689 2.33062C16.6166 2.1072 16.0257 1.9949 15.43 2.00018H8.56998C7.36761 1.99219 6.21119 2.46147 5.35443 3.30511C4.49767 4.14875 4.01057 5.29783 4 6.50018V17.5002C4.00392 18.0959 4.12529 18.6849 4.35721 19.2337C4.58912 19.7825 4.927 20.2801 5.3515 20.6981C5.776 21.1161 6.27878 21.4463 6.83105 21.6697C7.38333 21.8932 7.97425 22.0053 8.56998 22.0001H15.42C16.0157 22.0053 16.6066 21.8932 17.1589 21.6697C17.7112 21.4463 18.214 21.1161 18.6385 20.6981C19.063 20.2801 19.4008 19.7825 19.6328 19.2337C19.8647 18.6849 19.9861 18.0959 19.99 17.5002H20Z" stroke="#000000" stroke-width="1.5" stroke-linecap="round" stroke-linejoin="round"/>
<path d="M14 5H10" stroke="#000000" stroke-width="1.5" stroke-linecap="round" stroke-linejoin="round"/>
</svg>